<svg xmlns="http://www.w3.org/2000/svg" xmlns:xlink="http://www.w3.org/1999/xlink" width="715" height="654" viewBox="0 0 715 654">
  <defs>
    <linearGradient id="linear-gradient" x1="-0.107" y1="1.122" x2="0.97" y2="0.002" gradientUnits="objectBoundingBox">
      <stop offset="0.411" stop-color="#c395f1"/>
      <stop offset="0.429" stop-color="#c9a4f3"/>
      <stop offset="0.465" stop-color="#dccef9"/>
      <stop offset="0.477" stop-color="#e3defc"/>
    </linearGradient>
    <linearGradient id="linear-gradient-2" x1="0.559" y1="0.135" x2="0.453" y2="0.79" gradientUnits="objectBoundingBox">
      <stop offset="0" stop-color="#cac7ff"/>
      <stop offset="1" stop-color="#efeefe"/>
    </linearGradient>
    <linearGradient id="linear-gradient-3" y1="0.5" x2="1" y2="0.5" gradientUnits="objectBoundingBox">
      <stop offset="0.389" stop-color="#c395f1"/>
      <stop offset="0.405" stop-color="#b392f4"/>
      <stop offset="0.434" stop-color="#8c8cfd"/>
      <stop offset="0.632" stop-color="#8c8cfd"/>
      <stop offset="0.746" stop-color="#bf94f1"/>
      <stop offset="0.753" stop-color="#c395f1"/>
      <stop offset="0.76" stop-color="#b392f4"/>
      <stop offset="0.773" stop-color="#8c8cfd"/>
    </linearGradient>
    <linearGradient id="linear-gradient-4" y1="0.5" x2="1" y2="0.5" gradientUnits="objectBoundingBox">
      <stop offset="0.566" stop-color="#aeb6fd"/>
      <stop offset="0.598" stop-color="#b8a4f6"/>
      <stop offset="0.636" stop-color="#c395f1"/>
    </linearGradient>
    <clipPath id="clip-Course_Icon">
      <rect width="715" height="654"/>
    </clipPath>
  </defs>
  <g id="Course_Icon" data-name="Course Icon" clip-path="url(#clip-Course_Icon)">
    <g id="Group_5172" data-name="Group 5172" transform="translate(990.034 -340.591)">
      <g id="Group_5176" data-name="Group 5176" transform="translate(-955.972 367.705)">
        <path id="Path_21197" data-name="Path 21197" d="M-672.756,570.579-912.243,708.847c-2.633,1.521-4.768-.094-4.768-3.6V515.654c0-3.51,2.135-7.588,4.768-9.108l239.487-138.267c2.633-1.521,4.768.093,4.768,3.6v189.59C-667.989,564.981-670.123,569.059-672.756,570.579Z" transform="translate(962.831 -367.705)" fill="#fff" stroke="#9e9fed" stroke-miterlimit="10" stroke-width="0.099" opacity="0.6"/>
        <g id="Group_5175" data-name="Group 5175" transform="translate(0 142.667)">
          <path id="Path_21198" data-name="Path 21198" d="M-864.387,551.553l-91.585,52.877V541.892l91.585-52.877Z" transform="translate(955.972 -489.015)" fill="#ccd1eb"/>
          <g id="Group_5174" data-name="Group 5174" transform="translate(17.866 35.828)">
            <g id="Group_5173" data-name="Group 5173">
              <path id="Path_21199" data-name="Path 21199" d="M-933.761,540.584l3.221-1.859V550.5a16.475,16.475,0,0,1-.349,3.754,10.27,10.27,0,0,1-1.7,3.59,10.37,10.37,0,0,1-3.253,2.861q-2.369,1.367-3.647.563t-1.287-3.779l3.046-2.164a4.027,4.027,0,0,0,.4,2.024q.525.7,1.595.082a3.571,3.571,0,0,0,1.528-1.6,8.375,8.375,0,0,0,.447-3.233Z" transform="translate(940.78 -516.092)" fill="#fff"/>
              <path id="Path_21200" data-name="Path 21200" d="M-914.473,548l-3.515,2.029-1.4-3.416-6.4,3.693-1.321,4.986-3.428,1.98,6.234-22.2,3.416-1.972Zm-5.949-3.924-2.206-5.627-2.161,8.149Z" transform="translate(942.584 -517.082)" fill="#fff"/>
              <path id="Path_21201" data-name="Path 21201" d="M-912.5,547.312l-5.72-15.295,3.5-2.024,4.05,11.425,3.92-16.026,3.428-1.98-5.732,21.906Z" transform="translate(944.751 -518.788)" fill="#fff"/>
              <path id="Path_21202" data-name="Path 21202" d="M-890.885,534.376l-3.515,2.03-1.4-3.417-6.4,3.694-1.321,4.987-3.428,1.979,6.234-22.2,3.417-1.971Zm-5.949-3.923-2.205-5.626-2.162,8.149Z" transform="translate(946.737 -519.48)" fill="#fff"/>
            </g>
          </g>
        </g>
      </g>
      <g id="Group_5180" data-name="Group 5180" transform="translate(-917.348 390.505)">
        <path id="Path_21203" data-name="Path 21203" d="M-640.073,589.967-879.559,728.234c-2.632,1.52-4.766-.093-4.766-3.6V535.041c0-3.51,2.135-7.588,4.766-9.109l239.487-138.267c2.633-1.521,4.768.093,4.768,3.6v189.59C-635.3,584.369-637.439,588.446-640.073,589.967Z" transform="translate(929.961 -387.092)" fill="#fff" stroke="#9e9fed" stroke-miterlimit="10" stroke-width="0.099" opacity="0.7"/>
        <g id="Group_5179" data-name="Group 5179" transform="translate(0 142.555)">
          <path id="Path_21204" data-name="Path 21204" d="M-831.545,570.844l-91.585,52.877V561.184l91.585-52.877Z" transform="translate(923.13 -508.307)" fill="#99a4d8"/>
          <g id="Group_5178" data-name="Group 5178" transform="translate(24.133 37.934)">
            <g id="Group_5177" data-name="Group 5177">
              <path id="Path_21205" data-name="Path 21205" d="M-902.609,579.454v-18.6l5.185-2.993a22.3,22.3,0,0,1,3.842-1.94,2.287,2.287,0,0,1,2.3.49,4.126,4.126,0,0,1,.929,3.086,9.293,9.293,0,0,1-.535,3.188,10.674,10.674,0,0,1-1.36,2.618,9.989,9.989,0,0,1-1.676,1.85,27.2,27.2,0,0,1-3.352,2.2l-2.106,1.216v7.016Zm3.232-17.317v5.278l1.768-1.021a12.894,12.894,0,0,0,2.554-1.767,5.017,5.017,0,0,0,1.01-1.5,4.08,4.08,0,0,0,.366-1.657,1.588,1.588,0,0,0-.513-1.378,1.344,1.344,0,0,0-1.3-.074,18.758,18.758,0,0,0-2.325,1.215Z" transform="translate(902.609 -537.878)" fill="#fff"/>
              <path id="Path_21206" data-name="Path 21206" d="M-889.92,572.479v-18.6l3.233-1.866v7.32l6.332-3.656V548.36l3.231-1.865v18.6l-3.231,1.865v-8.131l-6.332,3.656v8.131Z" transform="translate(904.843 -539.518)" fill="#fff"/>
              <path id="Path_21207" data-name="Path 21207" d="M-876.2,564.208v-18.6l5.187-2.993a22.19,22.19,0,0,1,3.842-1.939,2.277,2.277,0,0,1,2.3.49,4.121,4.121,0,0,1,.928,3.085,9.273,9.273,0,0,1-.535,3.189,10.631,10.631,0,0,1-1.358,2.617,10.065,10.065,0,0,1-1.676,1.85,27.226,27.226,0,0,1-3.352,2.2l-2.108,1.216v7.015Zm3.232-17.318v5.277l1.769-1.021a12.9,12.9,0,0,0,2.554-1.766,5.045,5.045,0,0,0,1.01-1.5,4.078,4.078,0,0,0,.366-1.657,1.584,1.584,0,0,0-.512-1.377,1.341,1.341,0,0,0-1.3-.075,18.938,18.938,0,0,0-2.325,1.215Z" transform="translate(907.259 -540.563)" fill="#fff"/>
            </g>
          </g>
        </g>
      </g>
      <g id="Group_5184" data-name="Group 5184" transform="translate(-878.451 413.191)">
        <path id="Path_21208" data-name="Path 21208" d="M-607,609.256-846.485,747.525c-2.633,1.52-4.768-.094-4.768-3.6V554.331c0-3.51,2.135-7.589,4.768-9.109L-607,406.955c2.633-1.521,4.768.093,4.768,3.6V600.147C-602.231,603.658-604.365,607.736-607,609.256Z" transform="translate(896.887 -406.382)" fill="#fff" stroke="#9e9fed" stroke-miterlimit="10" stroke-width="0.099" opacity="0.8"/>
        <g id="Group_5183" data-name="Group 5183" transform="translate(0 142.689)">
          <path id="Path_21209" data-name="Path 21209" d="M-798.471,590.249l-91.585,52.877V580.588l91.585-52.877Z" transform="translate(890.056 -527.711)" fill="#6676c4"/>
          <g id="Group_5182" data-name="Group 5182" transform="translate(23.554 39.587)">
            <g id="Group_5181" data-name="Group 5181">
              <path id="Path_21210" data-name="Path 21210" d="M-870.028,592.471l3.145-2.171q.282,1.676,1.152,2.037a2.746,2.746,0,0,0,2.341-.489,6.713,6.713,0,0,0,2.354-2.126,4.235,4.235,0,0,0,.791-2.251,1.144,1.144,0,0,0-.333-.931,1.494,1.494,0,0,0-1.163-.133q-.568.1-2.588.681-2.6.753-3.647.266a2.853,2.853,0,0,1-1.474-2.891,7.877,7.877,0,0,1,.694-3.058,10.378,10.378,0,0,1,2-3.037,13.433,13.433,0,0,1,3.151-2.466q3.011-1.739,4.536-1.084t1.6,3.174l-3.232,2.031q-.208-1.314-.89-1.547a2.758,2.758,0,0,0-2.046.552,6.785,6.785,0,0,0-2.206,1.948,2.507,2.507,0,0,0-.513,1.449.815.815,0,0,0,.481.852,6.166,6.166,0,0,0,2.968-.472,12.1,12.1,0,0,1,3.488-.675,2.208,2.208,0,0,1,1.769.869,4.252,4.252,0,0,1,.638,2.593,8.967,8.967,0,0,1-.764,3.435,10.958,10.958,0,0,1-2.16,3.321,15.128,15.128,0,0,1-3.483,2.69q-3.035,1.752-4.661,1.061T-870.028,592.471Z" transform="translate(870.028 -559.037)" fill="#fff"/>
              <path id="Path_21211" data-name="Path 21211" d="M-843.671,581.06a6.33,6.33,0,0,0,2.588.08l-1.19,3.338a4.986,4.986,0,0,1-1.43.128q-.153,0-2.151-.407a14.762,14.762,0,0,1-3.482,2.81q-3.69,2.129-5.78.813t-2.091-5.884a16.678,16.678,0,0,1,2.1-8.295,15.081,15.081,0,0,1,5.688-5.814q3.558-2.055,5.644-.728t2.085,5.88a17.6,17.6,0,0,1-.579,4.571A17.545,17.545,0,0,1-843.671,581.06Zm-2.6-.617a10.868,10.868,0,0,0,.933-2.594,13.444,13.444,0,0,0,.311-2.945q0-3.223-1.223-4.108t-3.2.254a8.419,8.419,0,0,0-3.2,3.449,11.589,11.589,0,0,0-1.227,5.516q0,3.26,1.227,4.169t3.106-.177a6.27,6.27,0,0,0,1.321-1.029,5.742,5.742,0,0,0-2-.013l.907-2.667A6.527,6.527,0,0,1-846.269,580.442Z" transform="translate(872.285 -560.455)" fill="#fff"/>
              <path id="Path_21212" data-name="Path 21212" d="M-841.789,581.684V563.238l3.232-1.866v15.311l8.035-4.638v3.133Z" transform="translate(875 -561.372)" fill="#fff"/>
            </g>
          </g>
        </g>
      </g>
      <g id="Group_5188" data-name="Group 5188" transform="translate(-840.77 435.892)">
        <path id="Path_21213" data-name="Path 21213" d="M-574.534,628.558-814.021,766.826c-2.633,1.519-4.768-.094-4.768-3.6V573.633c0-3.51,2.134-7.589,4.768-9.109l239.487-138.267c2.633-1.521,4.768.093,4.768,3.6V619.449C-569.767,622.96-571.9,627.038-574.534,628.558Z" transform="translate(864.921 -425.684)" fill="#fff" stroke="#9e9fed" stroke-miterlimit="10" stroke-width="0.099" opacity="0.9"/>
        <g id="Group_5187" data-name="Group 5187" transform="translate(0 142.923)">
          <path id="Path_21214" data-name="Path 21214" d="M-766.431,609.75l-91.585,52.877V600.089l91.585-52.877Z" transform="translate(858.015 -547.212)" fill="#3349b1"/>
          <g id="Group_5186" data-name="Group 5186" transform="translate(23.881 37.979)">
            <g id="Group_5185" data-name="Group 5185">
              <path id="Path_21215" data-name="Path 21215" d="M-826.9,605.5l3.132-.655a16.159,16.159,0,0,1-2.4,5.908,12.93,12.93,0,0,1-4.252,3.932q-3.188,1.84-5.241.494t-2.052-5.734a17.176,17.176,0,0,1,2.064-8.4,14.372,14.372,0,0,1,5.425-5.7q2.937-1.7,4.771-.739a3.761,3.761,0,0,1,1.638,2.48l-3.2,2.736a1.965,1.965,0,0,0-1.184-1.6,2.654,2.654,0,0,0-2.189.427,7.538,7.538,0,0,0-2.887,3.151,11.738,11.738,0,0,0-1.108,5.449q0,3.526,1.092,4.393t2.838-.141a6.441,6.441,0,0,0,2.217-2.231A10.594,10.594,0,0,0-826.9,605.5Z" transform="translate(837.709 -576.908)" fill="#fff"/>
              <path id="Path_21216" data-name="Path 21216" d="M-824.193,604.658l3.145-2.17q.284,1.674,1.151,2.037a2.75,2.75,0,0,0,2.341-.489,6.705,6.705,0,0,0,2.352-2.126,4.218,4.218,0,0,0,.793-2.252,1.139,1.139,0,0,0-.333-.93,1.492,1.492,0,0,0-1.163-.134q-.568.1-2.589.682-2.6.751-3.646.267a2.858,2.858,0,0,1-1.474-2.893,7.886,7.886,0,0,1,.693-3.056,10.368,10.368,0,0,1,2-3.038,13.5,13.5,0,0,1,3.149-2.466q3.013-1.74,4.535-1.083t1.6,3.174l-3.231,2.03q-.208-1.312-.89-1.548a2.765,2.765,0,0,0-2.046.554,6.79,6.79,0,0,0-2.205,1.945,2.51,2.51,0,0,0-.514,1.451.813.813,0,0,0,.481.852,6.166,6.166,0,0,0,2.969-.471,12.1,12.1,0,0,1,3.487-.676,2.211,2.211,0,0,1,1.769.869,4.256,4.256,0,0,1,.639,2.593,8.983,8.983,0,0,1-.763,3.435,10.969,10.969,0,0,1-2.163,3.322,15.125,15.125,0,0,1-3.482,2.69q-3.034,1.75-4.661,1.061T-824.193,604.658Z" transform="translate(840.089 -578.216)" fill="#fff"/>
              <path id="Path_21217" data-name="Path 21217" d="M-811.512,597.338l3.144-2.17q.284,1.676,1.152,2.037a2.751,2.751,0,0,0,2.342-.489,6.716,6.716,0,0,0,2.352-2.126,4.224,4.224,0,0,0,.792-2.252,1.141,1.141,0,0,0-.333-.93,1.494,1.494,0,0,0-1.162-.134q-.568.1-2.588.682-2.6.752-3.646.266a2.851,2.851,0,0,1-1.474-2.891,7.882,7.882,0,0,1,.693-3.059,10.375,10.375,0,0,1,2-3.036,13.405,13.405,0,0,1,3.15-2.465q3.013-1.741,4.536-1.084t1.6,3.174l-3.232,2.03q-.206-1.315-.889-1.547a2.749,2.749,0,0,0-2.047.553,6.782,6.782,0,0,0-2.205,1.945,2.507,2.507,0,0,0-.513,1.451.813.813,0,0,0,.48.851,6.158,6.158,0,0,0,2.969-.471,12.1,12.1,0,0,1,3.488-.675,2.215,2.215,0,0,1,1.769.868,4.259,4.259,0,0,1,.638,2.594,8.981,8.981,0,0,1-.764,3.435,10.973,10.973,0,0,1-2.162,3.322,15.081,15.081,0,0,1-3.482,2.689q-3.035,1.754-4.662,1.062T-811.512,597.338Z" transform="translate(842.321 -579.505)" fill="#fff"/>
            </g>
          </g>
        </g>
      </g>
      <path id="Path_21218" data-name="Path 21218" d="M-514.776,655.666l173.212,100c3.2,1.848,3.467,4.687.6,6.343l-101.723,58.73a7.373,7.373,0,0,0-5.529.327l-49.2,28.405c-1.423.822-1.594,2.123-.567,3.192l-102.835,59.372c-2.869,1.656-7.786,1.5-10.986-.346l-173.21-100c-3.2-1.848-3.467-4.685-.6-6.342l259.852-150.024C-522.891,653.664-517.975,653.818-514.776,655.666Z" transform="translate(29.642 50.434)" fill="#153641" opacity="0.2" style="mix-blend-mode: multiply;isolation: isolate"/>
      <g id="Group_5194" data-name="Group 5194" transform="translate(-764.047 440.166)">
        <g id="Group_5193" data-name="Group 5193" transform="translate(0)">
          <g id="Group_5189" data-name="Group 5189">
            <path id="Path_21219" data-name="Path 21219" d="M-528.736,656.3l-255.625,151.5c-2.9,1.672-8.417-2.184-8.417-6.046v-212.5c0-3.862,2.348-8.349,5.245-10.021l258.8-149.416c2.9-1.673,8.705,1.194,8.705,5.056l-3.46,211.41C-523.491,650.135-525.84,654.621-528.736,656.3Z" transform="translate(792.778 -429.318)" fill="url(#linear-gradient)"/>
            <path id="Path_21220" data-name="Path 21220" d="M-520.519,435.42V647.907c0,3.868-2.351,8.368-5.232,10.036l-15.5,8.95-243.3,140.461c-2.907,1.669-5.258-.1-5.258-3.969V590.9c0-3.868,2.351-8.368,5.258-10.036l258.8-149.411C-522.87,429.782-520.519,431.552-520.519,435.42Z" transform="translate(793.3 -429.053)" fill="url(#linear-gradient-2)"/>
            <path id="Path_21221" data-name="Path 21221" d="M-536.932,648.766-776.419,787.035c-2.633,1.519-4.768-.094-4.768-3.6V593.841c0-3.511,2.135-7.589,4.768-9.109l239.487-138.268c2.632-1.521,4.766.093,4.766,3.6V639.657C-532.166,643.168-534.3,647.246-536.932,648.766Z" transform="translate(794.819 -426.4)" fill="#9e9fed"/>
          </g>
          <g id="Group_5192" data-name="Group 5192" transform="translate(5.219 225.692)">
            <path id="Path_21222" data-name="Path 21222" d="M-514.489,628.909l173.054,92.723c4.09,2.356,4.277,11.561-3.013,15.8L-442.4,793.983a7.366,7.366,0,0,0-5.527.328l-49.2,28.405c-1.423.821-1.594,2.123-.567,3.191l-102.835,59.372c-2.87,1.657-7.786,1.5-10.986-.346l-171.814-99.2c-5.959-4.1-6.094-10.358-3.05-13.783l260.907-143.391C-522.6,626.906-517.688,627.061-514.489,628.909Z" transform="translate(788.34 -620.135)" fill="url(#linear-gradient-3)"/>
            <path id="Path_21223" data-name="Path 21223" d="M-514.776,622.719l173.212,100c3.2,1.847,3.467,4.685.6,6.343l-101.723,58.729a7.362,7.362,0,0,0-5.529.327l-49.2,28.4c-1.423.822-1.594,2.123-.567,3.192L-600.819,879.09c-2.869,1.656-7.786,1.5-10.986-.346l-173.21-100c-3.2-1.848-3.467-4.685-.6-6.342l259.852-150.026C-522.891,620.716-517.975,620.871-514.776,622.719Z" transform="translate(788.47 -621.225)" fill="#e9e5ff"/>
            <path id="Path_21224" data-name="Path 21224" d="M-464.766,750.513-559.479,805.2a12.835,12.835,0,0,1-11.609,0l-56.97-32.892c-3.2-1.851-3.2-4.851,0-6.7l94.714-54.683a12.832,12.832,0,0,1,11.609,0l56.969,32.892C-461.559,745.662-461.559,748.662-464.766,750.513Z" transform="translate(816.135 -605.678)" fill="url(#linear-gradient-4)"/>
            <path id="Path_21225" data-name="Path 21225" d="M-464.766,751.787l-94.713,54.683a12.826,12.826,0,0,1-11.609,0l-56.97-32.891c-3.2-1.851-3.2-4.851,0-6.7l94.714-54.683a12.828,12.828,0,0,1,11.609,0l56.969,32.891C-461.559,746.936-461.559,749.937-464.766,751.787Z" transform="translate(816.135 -605.454)" fill="#e1e1fc"/>
            <g id="Group_5190" data-name="Group 5190" transform="translate(42.751 23.967)">
              <path id="Path_21226" data-name="Path 21226" d="M-538.881,650.421-563,664.349a2.58,2.58,0,0,1-2.33,0l-12.461-7.195a.711.711,0,0,1,0-1.345l24.122-13.927a2.585,2.585,0,0,1,2.331,0l12.461,7.194A.711.711,0,0,1-538.881,650.421Z" transform="translate(782.572 -641.604)" fill="#9a88ca" opacity="0.6"/>
              <path id="Path_21227" data-name="Path 21227" d="M-564.731,664.363l-12.964,7.486a2.026,2.026,0,0,1-1.828,0l-12.965-7.486a.557.557,0,0,1,0-1.055l12.965-7.486a2.025,2.025,0,0,1,1.828,0l12.964,7.484A.557.557,0,0,1-564.731,664.363Z" transform="translate(780.003 -639.139)" fill="#9a88ca" opacity="0.6"/>
              <path id="Path_21228" data-name="Path 21228" d="M-579.194,672.714l-12.964,7.484a2.025,2.025,0,0,1-1.829,0l-12.964-7.486a.557.557,0,0,1,0-1.055l12.964-7.484a2.023,2.023,0,0,1,1.829,0l12.965,7.485A.558.558,0,0,1-579.194,672.714Z" transform="translate(777.457 -637.669)" fill="#9a88ca" opacity="0.6"/>
              <path id="Path_21229" data-name="Path 21229" d="M-593.656,681.064l-12.964,7.484a2.024,2.024,0,0,1-1.829,0l-12.964-7.484a.557.557,0,0,1,0-1.055l12.964-7.484a2.019,2.019,0,0,1,1.828,0l12.965,7.484A.558.558,0,0,1-593.656,681.064Z" transform="translate(774.911 -636.199)" fill="#9a88ca" opacity="0.6"/>
              <path id="Path_21230" data-name="Path 21230" d="M-608.153,689.433l-12.965,7.486a2.02,2.02,0,0,1-1.828,0l-12.964-7.484a.557.557,0,0,1,0-1.055l12.964-7.486a2.026,2.026,0,0,1,1.828,0l12.964,7.486A.557.557,0,0,1-608.153,689.433Z" transform="translate(772.359 -634.725)" fill="#9a88ca" opacity="0.6"/>
              <path id="Path_21231" data-name="Path 21231" d="M-622.615,697.783l-12.965,7.484a2.025,2.025,0,0,1-1.829,0l-12.964-7.484a.558.558,0,0,1,0-1.056l12.965-7.485a2.021,2.021,0,0,1,1.827,0l12.964,7.484A.557.557,0,0,1-622.615,697.783Z" transform="translate(769.812 -633.255)" fill="#9a88ca" opacity="0.6"/>
              <path id="Path_21232" data-name="Path 21232" d="M-637.078,706.134l-12.965,7.484a2.021,2.021,0,0,1-1.827,0l-12.965-7.484a.557.557,0,0,1,0-1.055l12.965-7.485a2.019,2.019,0,0,1,1.827,0l12.964,7.485A.558.558,0,0,1-637.078,706.134Z" transform="translate(767.266 -631.785)" fill="#9a88ca" opacity="0.6"/>
              <path id="Path_21233" data-name="Path 21233" d="M-651.54,714.483l-12.965,7.486a2.031,2.031,0,0,1-1.83,0l-12.964-7.484a.558.558,0,0,1,0-1.056l12.965-7.486a2.024,2.024,0,0,1,1.827,0l12.965,7.486A.557.557,0,0,1-651.54,714.483Z" transform="translate(764.72 -630.315)" fill="#9a88ca" opacity="0.6"/>
              <path id="Path_21234" data-name="Path 21234" d="M-666,722.833l-12.964,7.486a2.029,2.029,0,0,1-1.829,0l-12.964-7.486a.557.557,0,0,1,0-1.055l12.964-7.484a2.025,2.025,0,0,1,1.83,0L-666,721.777A.558.558,0,0,1-666,722.833Z" transform="translate(762.174 -628.845)" fill="#9a88ca" opacity="0.6"/>
              <path id="Path_21235" data-name="Path 21235" d="M-680.466,731.183l-12.964,7.485a2.028,2.028,0,0,1-1.829,0l-12.964-7.484a.557.557,0,0,1,0-1.055l12.964-7.484a2.018,2.018,0,0,1,1.827,0l12.964,7.484A.557.557,0,0,1-680.466,731.183Z" transform="translate(759.628 -627.375)" fill="#9a88ca" opacity="0.6"/>
              <path id="Path_21236" data-name="Path 21236" d="M-694.929,739.534l-12.964,7.484a2.025,2.025,0,0,1-1.829,0l-12.964-7.484a.557.557,0,0,1,0-1.055l12.964-7.484a2.027,2.027,0,0,1,1.83,0l12.962,7.484A.558.558,0,0,1-694.929,739.534Z" transform="translate(757.081 -625.905)" fill="#9a88ca" opacity="0.6"/>
              <path id="Path_21237" data-name="Path 21237" d="M-709.391,747.883l-12.964,7.484a2.018,2.018,0,0,1-1.828,0l-12.964-7.484a.557.557,0,0,1,0-1.055l12.964-7.485a2.024,2.024,0,0,1,1.828,0l12.964,7.485A.557.557,0,0,1-709.391,747.883Z" transform="translate(754.535 -624.435)" fill="#9a88ca" opacity="0.6"/>
              <path id="Path_21238" data-name="Path 21238" d="M-723.855,756.234l-12.964,7.484a2.024,2.024,0,0,1-1.828,0l-12.965-7.485a.557.557,0,0,1,0-1.055l12.965-7.484a2.024,2.024,0,0,1,1.829,0l12.964,7.484A.559.559,0,0,1-723.855,756.234Z" transform="translate(751.989 -622.965)" fill="#9a88ca" opacity="0.6"/>
              <path id="Path_21239" data-name="Path 21239" d="M-694.256,757.353l-27.62,15.947a2.728,2.728,0,0,1-2.463,0l-12.329-7.118a.751.751,0,0,1,0-1.422l27.62-15.947a2.722,2.722,0,0,1,2.461,0l12.331,7.119A.75.75,0,0,1-694.256,757.353Z" transform="translate(754.597 -622.781)" fill="#9a88ca" opacity="0.6"/>
              <path id="Path_21240" data-name="Path 21240" d="M-681.63,748.756l-12.752,7.362a2.006,2.006,0,0,1-1.816,0l-12.975-7.49a.554.554,0,0,1,0-1.049l12.753-7.362a2.006,2.006,0,0,1,1.816,0l12.975,7.491A.554.554,0,0,1-681.63,748.756Z" transform="translate(759.461 -624.281)" fill="#9a88ca" opacity="0.6"/>
              <path id="Path_21241" data-name="Path 21241" d="M-667.141,740.409l-12.963,7.484a2.018,2.018,0,0,1-1.828,0l-12.964-7.484a.558.558,0,0,1,0-1.056l12.965-7.484a2.024,2.024,0,0,1,1.829,0l12.965,7.484A.558.558,0,0,1-667.141,740.409Z" transform="translate(761.974 -625.751)" fill="#9a88ca" opacity="0.6"/>
              <path id="Path_21242" data-name="Path 21242" d="M-652.676,732.058l-12.965,7.485a2.022,2.022,0,0,1-1.826,0l-12.965-7.485a.557.557,0,0,1,0-1.055l12.964-7.486a2.027,2.027,0,0,1,1.828,0L-652.677,731A.557.557,0,0,1-652.676,732.058Z" transform="translate(764.52 -627.221)" fill="#9a88ca" opacity="0.6"/>
              <path id="Path_21243" data-name="Path 21243" d="M-638.215,723.709l-12.965,7.484a2.019,2.019,0,0,1-1.828,0l-12.963-7.484a.558.558,0,0,1,0-1.056l12.963-7.484a2.027,2.027,0,0,1,1.83,0l12.964,7.484A.558.558,0,0,1-638.215,723.709Z" transform="translate(767.066 -628.691)" fill="#9a88ca" opacity="0.6"/>
              <path id="Path_21244" data-name="Path 21244" d="M-623.751,715.358l-12.964,7.486a2.025,2.025,0,0,1-1.827,0l-12.965-7.484a.558.558,0,0,1,0-1.056l12.964-7.484a2.021,2.021,0,0,1,1.829,0l12.963,7.484A.557.557,0,0,1-623.751,715.358Z" transform="translate(769.612 -630.161)" fill="#9a88ca" opacity="0.6"/>
              <path id="Path_21245" data-name="Path 21245" d="M-609.289,707.009l-12.965,7.485a2.023,2.023,0,0,1-1.826,0l-12.965-7.485a.558.558,0,0,1,0-1.056l12.964-7.484a2.022,2.022,0,0,1,1.83,0l12.964,7.484A.558.558,0,0,1-609.289,707.009Z" transform="translate(772.159 -631.631)" fill="#9a88ca" opacity="0.6"/>
              <path id="Path_21246" data-name="Path 21246" d="M-594.826,698.658l-12.964,7.485a2.024,2.024,0,0,1-1.827,0l-12.964-7.485a.557.557,0,0,1,0-1.055l12.965-7.486a2.021,2.021,0,0,1,1.827,0l12.964,7.484A.557.557,0,0,1-594.826,698.658Z" transform="translate(774.705 -633.101)" fill="#9a88ca" opacity="0.6"/>
              <path id="Path_21247" data-name="Path 21247" d="M-580.33,690.289l-12.963,7.484a2.028,2.028,0,0,1-1.829,0l-12.964-7.486a.558.558,0,0,1,0-1.056l12.965-7.484a2.016,2.016,0,0,1,1.828,0l12.963,7.484A.558.558,0,0,1-580.33,690.289Z" transform="translate(777.257 -634.574)" fill="#9a88ca" opacity="0.6"/>
              <path id="Path_21248" data-name="Path 21248" d="M-565.866,681.939l-12.965,7.484a2.024,2.024,0,0,1-1.828,0l-12.964-7.484a.558.558,0,0,1,0-1.056l12.965-7.484a2.02,2.02,0,0,1,1.829,0l12.964,7.483A.558.558,0,0,1-565.866,681.939Z" transform="translate(779.803 -636.045)" fill="#9a88ca" opacity="0.6"/>
              <path id="Path_21249" data-name="Path 21249" d="M-551.4,673.588l-12.966,7.486a2.016,2.016,0,0,1-1.826,0l-12.965-7.484a.558.558,0,0,1,0-1.056l12.964-7.486a2.028,2.028,0,0,1,1.829,0l12.964,7.484A.557.557,0,0,1-551.4,673.588Z" transform="translate(782.35 -637.515)" fill="#9a88ca" opacity="0.6"/>
              <path id="Path_21250" data-name="Path 21250" d="M-524.027,658.9l-25.623,14.793a2.642,2.642,0,0,1-2.389,0l-12.4-7.161a.729.729,0,0,1,0-1.38l25.624-14.792a2.643,2.643,0,0,1,2.387,0l12.4,7.161A.728.728,0,0,1-524.027,658.9Z" transform="translate(784.92 -640.113)" fill="#9a88ca" opacity="0.6"/>
              <path id="Path_21251" data-name="Path 21251" d="M-672.6,762.376-707.115,782.3a2.988,2.988,0,0,1-2.7,0l-12.093-6.981a.823.823,0,0,1,0-1.558l34.515-19.927a2.989,2.989,0,0,1,2.7,0l12.092,6.981A.824.824,0,0,1-672.6,762.376Z" transform="translate(757.187 -621.902)" fill="#9a88ca" opacity="0.6"/>
              <path id="Path_21252" data-name="Path 21252" d="M-660.913,753.715l-12.752,7.362a2.011,2.011,0,0,1-1.817,0l-12.977-7.491a.554.554,0,0,1,0-1.049l12.753-7.362a2.006,2.006,0,0,1,1.816,0l12.975,7.491A.554.554,0,0,1-660.913,753.715Z" transform="translate(763.108 -623.408)" fill="#9a88ca" opacity="0.6"/>
              <path id="Path_21253" data-name="Path 21253" d="M-646.423,745.368l-12.962,7.484a2.024,2.024,0,0,1-1.83,0l-12.965-7.484a.558.558,0,0,1,0-1.057l12.966-7.485a2.023,2.023,0,0,1,1.827,0l12.964,7.485A.558.558,0,0,1-646.423,745.368Z" transform="translate(765.621 -624.878)" fill="#9a88ca" opacity="0.6"/>
              <path id="Path_21254" data-name="Path 21254" d="M-631.96,737.018l-12.964,7.484a2.02,2.02,0,0,1-1.829,0l-12.965-7.484a.557.557,0,0,1,0-1.055l12.965-7.484a2.018,2.018,0,0,1,1.828,0l12.964,7.484A.558.558,0,0,1-631.96,737.018Z" transform="translate(768.167 -626.348)" fill="#9a88ca" opacity="0.6"/>
              <path id="Path_21255" data-name="Path 21255" d="M-617.5,728.668l-12.963,7.485a2.031,2.031,0,0,1-1.83,0l-12.965-7.485a.557.557,0,0,1,0-1.055l12.965-7.486a2.025,2.025,0,0,1,1.829,0l12.964,7.485A.558.558,0,0,1-617.5,728.668Z" transform="translate(770.713 -627.818)" fill="#9a88ca" opacity="0.6"/>
              <path id="Path_21256" data-name="Path 21256" d="M-603.034,720.318-616,727.8a2.022,2.022,0,0,1-1.83,0l-12.965-7.485a.558.558,0,0,1,0-1.056l12.963-7.484a2.018,2.018,0,0,1,1.828,0l12.964,7.484A.558.558,0,0,1-603.034,720.318Z" transform="translate(773.26 -629.288)" fill="#9a88ca" opacity="0.6"/>
              <path id="Path_21257" data-name="Path 21257" d="M-588.573,711.968l-12.963,7.484a2.029,2.029,0,0,1-1.83,0l-12.964-7.484a.558.558,0,0,1,0-1.056l12.964-7.484a2.027,2.027,0,0,1,1.829,0l12.964,7.486A.558.558,0,0,1-588.573,711.968Z" transform="translate(775.806 -630.758)" fill="#9a88ca" opacity="0.6"/>
              <path id="Path_21258" data-name="Path 21258" d="M-574.109,703.618l-12.965,7.484a2.023,2.023,0,0,1-1.83,0l-12.964-7.484a.558.558,0,0,1,0-1.056l12.965-7.484a2.016,2.016,0,0,1,1.826,0l12.965,7.484A.558.558,0,0,1-574.109,703.618Z" transform="translate(778.352 -632.228)" fill="#9a88ca" opacity="0.6"/>
              <path id="Path_21259" data-name="Path 21259" d="M-559.612,695.248l-12.964,7.484a2.025,2.025,0,0,1-1.83,0l-12.965-7.484a.558.558,0,0,1,0-1.056l12.965-7.484a2.018,2.018,0,0,1,1.828,0l12.964,7.484A.558.558,0,0,1-559.612,695.248Z" transform="translate(780.904 -633.701)" fill="#9a88ca" opacity="0.6"/>
              <path id="Path_21260" data-name="Path 21260" d="M-545.15,686.9l-12.964,7.486a2.028,2.028,0,0,1-1.829,0l-12.964-7.484a.558.558,0,0,1,0-1.056l12.964-7.484a2.025,2.025,0,0,1,1.828,0l12.964,7.484A.558.558,0,0,1-545.15,686.9Z" transform="translate(783.45 -635.171)" fill="#9a88ca" opacity="0.6"/>
              <path id="Path_21261" data-name="Path 21261" d="M-524.969,675.74l-18.558,10.715a2.327,2.327,0,0,1-2.1,0l-12.692-7.328a.64.64,0,0,1,0-1.213l18.557-10.715a2.326,2.326,0,0,1,2.1,0l12.693,7.328A.64.64,0,0,1-524.969,675.74Z" transform="translate(786.009 -637.142)" fill="#9a88ca" opacity="0.6"/>
              <path id="Path_21262" data-name="Path 21262" d="M-511.066,667.207l-12.813,7.4a2.011,2.011,0,0,1-1.821,0l-12.972-7.489a.555.555,0,0,1,0-1.051l12.814-7.4a2.015,2.015,0,0,1,1.819,0l12.972,7.489A.555.555,0,0,1-511.066,667.207Z" transform="translate(789.478 -638.638)" fill="#9a88ca" opacity="0.6"/>
              <path id="Path_21263" data-name="Path 21263" d="M-674.839,779.13l-17.91,10.339a2.287,2.287,0,0,1-2.071,0l-12.721-7.344a.631.631,0,0,1,0-1.2l17.91-10.34a2.294,2.294,0,0,1,2.071,0l12.722,7.345A.632.632,0,0,1-674.839,779.13Z" transform="translate(759.739 -618.939)" fill="#9a88ca" opacity="0.6"/>
              <path id="Path_21264" data-name="Path 21264" d="M-646.26,762.174l-12.752,7.363a2.01,2.01,0,0,1-1.817,0l-12.975-7.49a.554.554,0,0,1,0-1.049l12.753-7.362a2.008,2.008,0,0,1,1.817,0l12.975,7.492A.553.553,0,0,1-646.26,762.174Z" transform="translate(765.687 -621.919)" fill="#9a88ca" opacity="0.6"/>
              <path id="Path_21265" data-name="Path 21265" d="M-660.913,770.634-673.664,778a2.016,2.016,0,0,1-1.819,0l-12.974-7.49a.555.555,0,0,1,0-1.05l12.752-7.362a2.008,2.008,0,0,1,1.817,0l12.976,7.492A.553.553,0,0,1-660.913,770.634Z" transform="translate(763.108 -620.429)" fill="#9a88ca" opacity="0.6"/>
              <path id="Path_21266" data-name="Path 21266" d="M-631.771,753.828l-12.963,7.483a2.02,2.02,0,0,1-1.829,0l-12.965-7.484a.558.558,0,0,1,0-1.056l12.966-7.485a2.023,2.023,0,0,1,1.829,0l12.964,7.485A.558.558,0,0,1-631.771,753.828Z" transform="translate(768.201 -623.388)" fill="#9a88ca" opacity="0.6"/>
              <path id="Path_21267" data-name="Path 21267" d="M-549.536,712.2l-80.515,46.485a2.552,2.552,0,0,1-2.312,0l-12.48-7.2a.7.7,0,0,1,0-1.335l80.514-46.486a2.561,2.561,0,0,1,2.313,0l12.48,7.206A.7.7,0,0,1-549.536,712.2Z" transform="translate(770.768 -630.726)" fill="#9a88ca" opacity="0.6"/>
              <path id="Path_21268" data-name="Path 21268" d="M-544.961,703.708l-12.962,7.484a2.028,2.028,0,0,1-1.829,0l-12.964-7.486a.559.559,0,0,1,0-1.057l12.964-7.484a2.024,2.024,0,0,1,1.829,0l12.964,7.484A.558.558,0,0,1-544.961,703.708Z" transform="translate(783.484 -632.212)" fill="#9a88ca" opacity="0.6"/>
              <path id="Path_21269" data-name="Path 21269" d="M-525,692.657l-18.345,10.592a2.316,2.316,0,0,1-2.089,0l-12.7-7.334a.637.637,0,0,1,0-1.206l18.344-10.592a2.317,2.317,0,0,1,2.092,0l12.7,7.334A.637.637,0,0,1-525,692.657Z" transform="translate(786.042 -634.163)" fill="#9a88ca" opacity="0.6"/>
              <path id="Path_21270" data-name="Path 21270" d="M-511.068,684.126l-12.811,7.4a2.013,2.013,0,0,1-1.821,0l-12.972-7.489a.555.555,0,0,1,0-1.052l12.812-7.4a2.021,2.021,0,0,1,1.822,0l12.971,7.489A.555.555,0,0,1-511.068,684.126Z" transform="translate(789.478 -635.659)" fill="#9a88ca" opacity="0.6"/>
              <path id="Path_21271" data-name="Path 21271" d="M-496.414,675.666l-12.813,7.4a2.02,2.02,0,0,1-1.822,0l-12.972-7.49a.555.555,0,0,1,0-1.051l12.814-7.4a2.01,2.01,0,0,1,1.819,0l12.972,7.489A.555.555,0,0,1-496.414,675.666Z" transform="translate(792.057 -637.149)" fill="#9a88ca" opacity="0.6"/>
              <path id="Path_21272" data-name="Path 21272" d="M-549.117,682.391l-.461.147.052.054c.033.033.059.061.079.085l.481-.121A1.689,1.689,0,0,0-549.117,682.391Z" transform="translate(787.624 -634.423)" fill="#9a88ca" opacity="0.6"/>
            </g>
            <g id="Group_5191" data-name="Group 5191" transform="translate(42.872 22.086)">
              <path id="Path_21273" data-name="Path 21273" d="M-538.778,648.823-562.9,662.751a2.576,2.576,0,0,1-2.33,0l-12.462-7.194a.711.711,0,0,1,0-1.345l24.122-13.928a2.581,2.581,0,0,1,2.33,0l12.462,7.2A.71.71,0,0,1-538.778,648.823Z" transform="translate(782.468 -640.005)" fill="#d4d1f7" opacity="0.6"/>
              <path id="Path_21274" data-name="Path 21274" d="M-564.628,662.765l-12.964,7.486a2.023,2.023,0,0,1-1.829,0l-12.964-7.484a.557.557,0,0,1,0-1.055l12.964-7.486a2.023,2.023,0,0,1,1.829,0l12.964,7.484A.557.557,0,0,1-564.628,662.765Z" transform="translate(779.9 -637.54)" fill="#d4d1f7" opacity="0.6"/>
              <path id="Path_21275" data-name="Path 21275" d="M-579.091,671.115l-12.965,7.486a2.025,2.025,0,0,1-1.828,0l-12.964-7.486a.557.557,0,0,1,0-1.055l12.964-7.484a2.024,2.024,0,0,1,1.829,0l12.965,7.484A.558.558,0,0,1-579.091,671.115Z" transform="translate(777.354 -636.07)" fill="#d4d1f7" opacity="0.6"/>
              <path id="Path_21276" data-name="Path 21276" d="M-593.553,679.465l-12.965,7.485a2.021,2.021,0,0,1-1.828,0l-12.965-7.484a.557.557,0,0,1,0-1.055l12.965-7.484a2.018,2.018,0,0,1,1.828,0l12.964,7.484A.557.557,0,0,1-593.553,679.465Z" transform="translate(774.808 -634.6)" fill="#d4d1f7" opacity="0.6"/>
              <path id="Path_21277" data-name="Path 21277" d="M-608.05,687.835l-12.965,7.486a2.025,2.025,0,0,1-1.829,0l-12.964-7.484a.557.557,0,0,1,0-1.055l12.965-7.486a2.025,2.025,0,0,1,1.827,0l12.964,7.486A.557.557,0,0,1-608.05,687.835Z" transform="translate(772.256 -633.126)" fill="#d4d1f7" opacity="0.6"/>
              <path id="Path_21278" data-name="Path 21278" d="M-622.512,696.185l-12.965,7.485a2.031,2.031,0,0,1-1.83,0l-12.964-7.485a.558.558,0,0,1,0-1.056l12.965-7.485a2.019,2.019,0,0,1,1.828,0l12.964,7.483A.558.558,0,0,1-622.512,696.185Z" transform="translate(769.709 -631.656)" fill="#d4d1f7" opacity="0.6"/>
              <path id="Path_21279" data-name="Path 21279" d="M-636.976,704.535l-12.964,7.486a2.024,2.024,0,0,1-1.829,0l-12.964-7.485a.557.557,0,0,1,0-1.055L-651.769,696a2.02,2.02,0,0,1,1.828,0l12.964,7.484A.557.557,0,0,1-636.976,704.535Z" transform="translate(767.163 -630.186)" fill="#d4d1f7" opacity="0.6"/>
              <path id="Path_21280" data-name="Path 21280" d="M-651.438,712.885-664.4,720.37a2.024,2.024,0,0,1-1.83,0l-12.964-7.484a.557.557,0,0,1,0-1.055l12.963-7.486a2.026,2.026,0,0,1,1.828,0l12.964,7.486A.557.557,0,0,1-651.438,712.885Z" transform="translate(764.617 -628.716)" fill="#d4d1f7" opacity="0.6"/>
              <path id="Path_21281" data-name="Path 21281" d="M-665.9,721.235l-12.964,7.485a2.024,2.024,0,0,1-1.829,0l-12.964-7.484a.557.557,0,0,1,0-1.055l12.964-7.485a2.03,2.03,0,0,1,1.83,0l12.963,7.485A.558.558,0,0,1-665.9,721.235Z" transform="translate(762.071 -627.246)" fill="#d4d1f7" opacity="0.6"/>
              <path id="Path_21282" data-name="Path 21282" d="M-680.363,729.585l-12.965,7.484a2.02,2.02,0,0,1-1.827,0l-12.964-7.484a.557.557,0,0,1,0-1.055l12.964-7.486a2.026,2.026,0,0,1,1.827,0l12.964,7.486A.557.557,0,0,1-680.363,729.585Z" transform="translate(759.525 -625.776)" fill="#d4d1f7" opacity="0.6"/>
              <path id="Path_21283" data-name="Path 21283" d="M-694.826,737.935l-12.965,7.485a2.021,2.021,0,0,1-1.827,0l-12.965-7.484a.557.557,0,0,1,0-1.055l12.965-7.484a2.025,2.025,0,0,1,1.829,0l12.963,7.484A.558.558,0,0,1-694.826,737.935Z" transform="translate(756.978 -624.306)" fill="#d4d1f7" opacity="0.6"/>
              <path id="Path_21284" data-name="Path 21284" d="M-709.29,746.285l-12.963,7.485a2.019,2.019,0,0,1-1.828,0l-12.965-7.485a.558.558,0,0,1,0-1.056l12.965-7.484a2.028,2.028,0,0,1,1.828,0l12.963,7.484A.558.558,0,0,1-709.29,746.285Z" transform="translate(754.432 -622.836)" fill="#d4d1f7" opacity="0.6"/>
              <path id="Path_21285" data-name="Path 21285" d="M-723.752,754.635l-12.964,7.486a2.025,2.025,0,0,1-1.828,0l-12.965-7.486a.557.557,0,0,1,0-1.055l12.965-7.484a2.02,2.02,0,0,1,1.829,0l12.964,7.484A.558.558,0,0,1-723.752,754.635Z" transform="translate(751.886 -621.366)" fill="#d4d1f7" opacity="0.6"/>
              <path id="Path_21286" data-name="Path 21286" d="M-694.153,755.755-721.773,771.7a2.724,2.724,0,0,1-2.463,0l-12.33-7.119a.751.751,0,0,1,0-1.422l27.62-15.947a2.721,2.721,0,0,1,2.462,0l12.33,7.119A.75.75,0,0,1-694.153,755.755Z" transform="translate(754.493 -621.182)" fill="#d4d1f7" opacity="0.6"/>
              <path id="Path_21287" data-name="Path 21287" d="M-681.526,747.157l-12.752,7.363a2.011,2.011,0,0,1-1.817,0l-12.974-7.492a.553.553,0,0,1,0-1.048l12.752-7.362a2.008,2.008,0,0,1,1.817,0l12.975,7.491A.553.553,0,0,1-681.526,747.157Z" transform="translate(759.358 -622.682)" fill="#d4d1f7" opacity="0.6"/>
              <path id="Path_21288" data-name="Path 21288" d="M-667.037,738.81-680,746.3a2.023,2.023,0,0,1-1.827,0l-12.964-7.484a.558.558,0,0,1,0-1.056l12.964-7.485a2.025,2.025,0,0,1,1.83,0l12.964,7.486A.557.557,0,0,1-667.037,738.81Z" transform="translate(761.871 -624.152)" fill="#d4d1f7" opacity="0.6"/>
              <path id="Path_21289" data-name="Path 21289" d="M-652.574,730.46l-12.964,7.486a2.026,2.026,0,0,1-1.828,0l-12.964-7.486a.557.557,0,0,1,0-1.055l12.964-7.486a2.025,2.025,0,0,1,1.829,0l12.964,7.484A.557.557,0,0,1-652.574,730.46Z" transform="translate(764.417 -625.622)" fill="#d4d1f7" opacity="0.6"/>
              <path id="Path_21290" data-name="Path 21290" d="M-638.112,722.111l-12.964,7.484a2.019,2.019,0,0,1-1.828,0l-12.964-7.484a.558.558,0,0,1,0-1.056l12.965-7.484a2.025,2.025,0,0,1,1.829,0l12.964,7.486A.558.558,0,0,1-638.112,722.111Z" transform="translate(766.963 -627.092)" fill="#d4d1f7" opacity="0.6"/>
              <path id="Path_21291" data-name="Path 21291" d="M-623.648,713.76l-12.965,7.484a2.015,2.015,0,0,1-1.826,0L-651.4,713.76a.557.557,0,0,1,0-1.055l12.964-7.486a2.021,2.021,0,0,1,1.828,0l12.963,7.485A.557.557,0,0,1-623.648,713.76Z" transform="translate(769.509 -628.562)" fill="#d4d1f7" opacity="0.6"/>
              <path id="Path_21292" data-name="Path 21292" d="M-609.186,705.41l-12.965,7.486a2.024,2.024,0,0,1-1.827,0l-12.964-7.486a.557.557,0,0,1,0-1.055l12.964-7.484a2.024,2.024,0,0,1,1.83,0l12.964,7.484A.557.557,0,0,1-609.186,705.41Z" transform="translate(772.055 -630.032)" fill="#d4d1f7" opacity="0.6"/>
              <path id="Path_21293" data-name="Path 21293" d="M-594.723,697.06l-12.964,7.486a2.024,2.024,0,0,1-1.828,0l-12.965-7.486a.557.557,0,0,1,0-1.055l12.964-7.486a2.025,2.025,0,0,1,1.829,0l12.964,7.485A.557.557,0,0,1-594.723,697.06Z" transform="translate(774.602 -631.502)" fill="#d4d1f7" opacity="0.6"/>
              <path id="Path_21294" data-name="Path 21294" d="M-580.226,688.69l-12.964,7.486a2.025,2.025,0,0,1-1.829,0l-12.965-7.484a.558.558,0,0,1,0-1.056l12.965-7.484a2.017,2.017,0,0,1,1.828,0l12.964,7.484A.557.557,0,0,1-580.226,688.69Z" transform="translate(777.154 -632.975)" fill="#d4d1f7" opacity="0.6"/>
              <path id="Path_21295" data-name="Path 21295" d="M-565.765,680.34l-12.964,7.486a2.026,2.026,0,0,1-1.827,0l-12.964-7.486a.557.557,0,0,1,0-1.055l12.965-7.484a2.025,2.025,0,0,1,1.829,0l12.964,7.485A.558.558,0,0,1-565.765,680.34Z" transform="translate(779.7 -634.446)" fill="#d4d1f7" opacity="0.6"/>
              <path id="Path_21296" data-name="Path 21296" d="M-551.3,671.99l-12.965,7.486a2.019,2.019,0,0,1-1.828,0l-12.964-7.485a.558.558,0,0,1,0-1.056l12.965-7.486a2.021,2.021,0,0,1,1.828,0l12.964,7.484A.557.557,0,0,1-551.3,671.99Z" transform="translate(782.246 -635.915)" fill="#d4d1f7" opacity="0.6"/>
              <path id="Path_21297" data-name="Path 21297" d="M-523.924,657.3l-25.623,14.794a2.643,2.643,0,0,1-2.389,0l-12.4-7.161a.729.729,0,0,1,0-1.38l25.623-14.792a2.638,2.638,0,0,1,2.389,0l12.4,7.161A.728.728,0,0,1-523.924,657.3Z" transform="translate(784.817 -638.514)" fill="#d4d1f7" opacity="0.6"/>
              <path id="Path_21298" data-name="Path 21298" d="M-672.5,760.778-707.012,780.7a2.991,2.991,0,0,1-2.7,0l-12.092-6.982a.822.822,0,0,1,0-1.557l34.515-19.927a2.983,2.983,0,0,1,2.7,0l12.092,6.981A.823.823,0,0,1-672.5,760.778Z" transform="translate(757.084 -620.303)" fill="#d4d1f7" opacity="0.6"/>
              <path id="Path_21299" data-name="Path 21299" d="M-660.809,752.117l-12.752,7.362a2.011,2.011,0,0,1-1.817,0l-12.977-7.492a.553.553,0,0,1,0-1.048l12.752-7.362a2.007,2.007,0,0,1,1.816,0l12.976,7.491A.554.554,0,0,1-660.809,752.117Z" transform="translate(763.005 -621.809)" fill="#d4d1f7" opacity="0.6"/>
              <path id="Path_21300" data-name="Path 21300" d="M-646.32,743.77l-12.963,7.484a2.032,2.032,0,0,1-1.831,0l-12.964-7.484a.558.558,0,0,1,0-1.056l12.966-7.486a2.023,2.023,0,0,1,1.826,0l12.965,7.486A.558.558,0,0,1-646.32,743.77Z" transform="translate(765.518 -623.279)" fill="#d4d1f7" opacity="0.6"/>
              <path id="Path_21301" data-name="Path 21301" d="M-631.857,735.42l-12.964,7.484a2.025,2.025,0,0,1-1.829,0l-12.965-7.484a.557.557,0,0,1,0-1.055l12.965-7.484a2.017,2.017,0,0,1,1.826,0l12.965,7.484A.558.558,0,0,1-631.857,735.42Z" transform="translate(768.064 -624.749)" fill="#d4d1f7" opacity="0.6"/>
              <path id="Path_21302" data-name="Path 21302" d="M-617.4,727.07l-12.963,7.484a2.03,2.03,0,0,1-1.83,0l-12.965-7.486a.557.557,0,0,1,0-1.055l12.965-7.484a2.024,2.024,0,0,1,1.829,0l12.964,7.486A.558.558,0,0,1-617.4,727.07Z" transform="translate(770.61 -626.219)" fill="#d4d1f7" opacity="0.6"/>
              <path id="Path_21303" data-name="Path 21303" d="M-602.932,718.72-615.9,726.2a2.023,2.023,0,0,1-1.83,0l-12.965-7.484a.558.558,0,0,1,0-1.056l12.965-7.486a2.027,2.027,0,0,1,1.828,0l12.963,7.486A.558.558,0,0,1-602.932,718.72Z" transform="translate(773.156 -627.689)" fill="#d4d1f7" opacity="0.6"/>
              <path id="Path_21304" data-name="Path 21304" d="M-588.47,710.37l-12.962,7.484a2.03,2.03,0,0,1-1.83,0l-12.965-7.485a.557.557,0,0,1,0-1.055l12.965-7.484a2.029,2.029,0,0,1,1.829,0l12.964,7.486A.557.557,0,0,1-588.47,710.37Z" transform="translate(775.703 -629.159)" fill="#d4d1f7" opacity="0.6"/>
              <path id="Path_21305" data-name="Path 21305" d="M-574.007,702.02l-12.964,7.484a2.03,2.03,0,0,1-1.83,0l-12.965-7.484a.558.558,0,0,1,0-1.056l12.964-7.484a2.017,2.017,0,0,1,1.828,0l12.963,7.484A.558.558,0,0,1-574.007,702.02Z" transform="translate(778.249 -630.629)" fill="#d4d1f7" opacity="0.6"/>
              <path id="Path_21306" data-name="Path 21306" d="M-559.509,693.65l-12.965,7.485a2.024,2.024,0,0,1-1.83,0l-12.964-7.485a.557.557,0,0,1,0-1.056l12.963-7.486a2.025,2.025,0,0,1,1.828,0l12.964,7.486A.558.558,0,0,1-559.509,693.65Z" transform="translate(780.801 -632.102)" fill="#d4d1f7" opacity="0.6"/>
              <path id="Path_21307" data-name="Path 21307" d="M-545.047,685.3l-12.965,7.484a2.025,2.025,0,0,1-1.829,0L-572.8,685.3a.557.557,0,0,1,0-1.055l12.965-7.484a2.015,2.015,0,0,1,1.826,0l12.965,7.484A.558.558,0,0,1-545.047,685.3Z" transform="translate(783.348 -633.572)" fill="#d4d1f7" opacity="0.6"/>
              <path id="Path_21308" data-name="Path 21308" d="M-524.867,674.142l-18.557,10.715a2.331,2.331,0,0,1-2.1,0l-12.692-7.328a.64.64,0,0,1,0-1.212L-539.66,665.6a2.317,2.317,0,0,1,2.1,0l12.692,7.328A.64.64,0,0,1-524.867,674.142Z" transform="translate(785.905 -635.543)" fill="#d4d1f7" opacity="0.6"/>
              <path id="Path_21309" data-name="Path 21309" d="M-510.964,665.608l-12.812,7.4a2.014,2.014,0,0,1-1.822,0l-12.972-7.489a.555.555,0,0,1,0-1.052l12.813-7.4a2.02,2.02,0,0,1,1.821,0l12.971,7.489A.554.554,0,0,1-510.964,665.608Z" transform="translate(789.375 -637.039)" fill="#d4d1f7" opacity="0.6"/>
              <path id="Path_21310" data-name="Path 21310" d="M-674.736,777.532l-17.91,10.34a2.294,2.294,0,0,1-2.071,0l-12.721-7.344a.632.632,0,0,1,0-1.2l17.908-10.341a2.3,2.3,0,0,1,2.072,0l12.722,7.346A.632.632,0,0,1-674.736,777.532Z" transform="translate(759.636 -617.34)" fill="#d4d1f7" opacity="0.6"/>
              <path id="Path_21311" data-name="Path 21311" d="M-646.157,760.576l-12.752,7.363a2.011,2.011,0,0,1-1.817,0l-12.974-7.492a.553.553,0,0,1,0-1.048l12.753-7.363a2.011,2.011,0,0,1,1.817,0l12.976,7.492A.553.553,0,0,1-646.157,760.576Z" transform="translate(765.584 -620.319)" fill="#d4d1f7" opacity="0.6"/>
              <path id="Path_21312" data-name="Path 21312" d="M-660.809,769.036l-12.753,7.362a2.012,2.012,0,0,1-1.818,0l-12.974-7.49a.555.555,0,0,1,0-1.05L-675.6,760.5a2.011,2.011,0,0,1,1.817,0l12.976,7.491A.554.554,0,0,1-660.809,769.036Z" transform="translate(763.005 -618.83)" fill="#d4d1f7" opacity="0.6"/>
              <path id="Path_21313" data-name="Path 21313" d="M-631.668,752.229l-12.962,7.484a2.024,2.024,0,0,1-1.829,0l-12.965-7.484a.558.558,0,0,1,0-1.056l12.966-7.486a2.024,2.024,0,0,1,1.829,0l12.964,7.486A.557.557,0,0,1-631.668,752.229Z" transform="translate(768.097 -621.789)" fill="#d4d1f7" opacity="0.6"/>
              <path id="Path_21314" data-name="Path 21314" d="M-549.433,710.607l-80.515,46.485a2.559,2.559,0,0,1-2.312,0l-12.48-7.2a.705.705,0,0,1,0-1.336l80.514-46.485a2.56,2.56,0,0,1,2.313,0l12.48,7.205A.705.705,0,0,1-549.433,710.607Z" transform="translate(770.665 -629.127)" fill="#d4d1f7" opacity="0.6"/>
              <path id="Path_21315" data-name="Path 21315" d="M-544.858,702.11l-12.962,7.484a2.024,2.024,0,0,1-1.829,0l-12.965-7.484a.559.559,0,0,1,0-1.057l12.965-7.484a2.02,2.02,0,0,1,1.829,0l12.964,7.484A.558.558,0,0,1-544.858,702.11Z" transform="translate(783.381 -630.613)" fill="#d4d1f7" opacity="0.6"/>
              <path id="Path_21316" data-name="Path 21316" d="M-524.9,691.059l-18.344,10.592a2.317,2.317,0,0,1-2.088,0l-12.7-7.334a.637.637,0,0,1,0-1.207l18.345-10.592a2.315,2.315,0,0,1,2.091,0l12.7,7.334A.637.637,0,0,1-524.9,691.059Z" transform="translate(785.939 -632.564)" fill="#d4d1f7" opacity="0.6"/>
              <path id="Path_21317" data-name="Path 21317" d="M-510.965,682.528l-12.811,7.4a2.013,2.013,0,0,1-1.822,0l-12.972-7.489a.556.556,0,0,1,0-1.053l12.812-7.4a2.014,2.014,0,0,1,1.822,0l12.971,7.489A.555.555,0,0,1-510.965,682.528Z" transform="translate(789.375 -634.06)" fill="#d4d1f7" opacity="0.6"/>
              <path id="Path_21318" data-name="Path 21318" d="M-496.311,674.068l-12.813,7.4a2.013,2.013,0,0,1-1.822,0l-12.972-7.489a.555.555,0,0,1,0-1.051l12.813-7.4a2.015,2.015,0,0,1,1.82,0l12.972,7.488A.555.555,0,0,1-496.311,674.068Z" transform="translate(791.954 -635.55)" fill="#d4d1f7" opacity="0.6"/>
              <path id="Path_21319" data-name="Path 21319" d="M-549.015,680.793l-.46.147.052.053c.032.034.059.062.079.086l.481-.121A1.371,1.371,0,0,0-549.015,680.793Z" transform="translate(787.521 -632.824)" fill="#d4d1f7" opacity="0.6"/>
            </g>
          </g>
        </g>
      </g>
      <path id="Path_21320" data-name="Path 21320" d="M-536.932,648.766-776.419,787.035c-2.633,1.519-4.768-.094-4.768-3.6V593.841c0-3.511,2.135-7.589,4.768-9.109l239.487-138.268c2.633-1.521,4.766.093,4.766,3.6V639.657C-532.166,643.168-534.3,647.246-536.932,648.766Z" transform="translate(30.772 13.765)" fill="#3b329d" opacity="0.3"/>
      <path id="Path_21321" data-name="Path 21321" d="M-541.148,469.792V659.374a8.725,8.725,0,0,1-.1,1.391l-243.3,140.461c-2.907,1.669-5.258-.1-5.258-3.969v-186.4a10.92,10.92,0,0,1,4.4-6.4L-545.927,466.2C-543.3,464.686-541.148,466.278-541.148,469.792Z" transform="translate(29.253 17.24)" fill="#153641" opacity="0.1" style="mix-blend-mode: multiply;isolation: isolate"/>
      <g id="Group_5198" data-name="Group 5198" transform="translate(-760.641 482.194)">
        <path id="Path_21322" data-name="Path 21322" d="M-506.666,667.93-746.154,806.2c-2.633,1.519-4.768-.094-4.768-3.6V613c0-3.509,2.135-7.588,4.768-9.107l239.487-138.268c2.633-1.521,4.768.094,4.768,3.6V658.822C-501.9,662.332-504.033,666.409-506.666,667.93Z" transform="translate(796.741 -465.055)" fill="#fff" stroke="#9e9fed" stroke-miterlimit="10" stroke-width="0.099"/>
        <g id="Group_5195" data-name="Group 5195" transform="translate(101.653 59.998)">
          <path id="Path_21323" data-name="Path 21323" d="M-670.287,570.668l-30.583,17.659c-1.423.821-2.576-.051-2.576-1.948h0a6.167,6.167,0,0,1,2.576-4.922l30.583-17.657c1.423-.822,2.576.05,2.576,1.947h0A6.166,6.166,0,0,1-670.287,570.668Z" transform="translate(703.446 -507.723)" fill="#dad7f0"/>
          <path id="Path_21324" data-name="Path 21324" d="M-681.221,584.446l-20.469,11.818c-.97.56-1.756-.034-1.756-1.326h0a4.2,4.2,0,0,1,1.756-3.355l20.469-11.818c.97-.56,1.756.034,1.756,1.327h0A4.2,4.2,0,0,1-681.221,584.446Z" transform="translate(703.446 -504.895)" fill="#f98aaf"/>
          <path id="Path_21325" data-name="Path 21325" d="M-663.121,586.49l-38.569,22.269c-.97.56-1.756-.034-1.756-1.328h0a4.206,4.206,0,0,1,1.756-3.355l38.569-22.267c.97-.56,1.757.034,1.757,1.328h0A4.2,4.2,0,0,1-663.121,586.49Z" transform="translate(703.446 -504.536)" fill="#dad7f0"/>
          <path id="Path_21326" data-name="Path 21326" d="M-647.519,575.377l-14.193,8.195c-.97.56-1.756-.035-1.756-1.328h0a4.2,4.2,0,0,1,1.756-3.355l14.193-8.195c.97-.56,1.756.034,1.756,1.328h0A4.2,4.2,0,0,1-647.519,575.377Z" transform="translate(710.484 -506.493)" fill="#f98aaf"/>
          <path id="Path_21327" data-name="Path 21327" d="M-540.086,520.966l-102.308,59.067c-.97.56-1.756-.034-1.756-1.328h0a4.206,4.206,0,0,1,1.756-3.355l102.308-59.067c.97-.56,1.756.034,1.756,1.328h0A4.2,4.2,0,0,1-540.086,520.966Z" transform="translate(713.885 -516.072)" fill="#dad7f0"/>
          <path id="Path_21328" data-name="Path 21328" d="M-601.669,565.269-701.69,623.016c-.97.56-1.756-.035-1.756-1.328h0a4.205,4.205,0,0,1,1.756-3.355l100.021-57.747c.97-.561,1.756.034,1.756,1.327h0A4.2,4.2,0,0,1-601.669,565.269Z" transform="translate(703.446 -508.272)" fill="#dad7f0"/>
          <path id="Path_21329" data-name="Path 21329" d="M-572.29,566.2l-100.02,57.747c-.97.56-1.757-.034-1.757-1.328h0a4.207,4.207,0,0,1,1.757-3.355l100.02-57.746c.97-.56,1.757.034,1.757,1.328h0A4.209,4.209,0,0,1-572.29,566.2Z" transform="translate(708.618 -508.108)" fill="#dad7f0"/>
          <path id="Path_21330" data-name="Path 21330" d="M-545.8,529.912l-64.128,37.023c-.97.561-1.757-.034-1.757-1.327h0a4.2,4.2,0,0,1,1.757-3.355l64.128-37.025c.97-.56,1.756.034,1.756,1.328h0A4.208,4.208,0,0,1-545.8,529.912Z" transform="translate(719.601 -514.497)" fill="#dad7f0"/>
          <path id="Path_21331" data-name="Path 21331" d="M-689.626,617.394l-12.064,6.964c-.97.561-1.756-.034-1.756-1.326h0a4.2,4.2,0,0,1,1.756-3.355l12.064-6.964c.969-.56,1.756.034,1.756,1.328h0A4.207,4.207,0,0,1-689.626,617.394Z" transform="translate(703.446 -499.095)" fill="#dad7f0"/>
          <path id="Path_21332" data-name="Path 21332" d="M-698.522,639.652l-3.168,1.83c-.97.56-1.756-.034-1.756-1.328h0a4.208,4.208,0,0,1,1.756-3.355l3.168-1.829c.97-.561,1.756.034,1.756,1.327h0A4.2,4.2,0,0,1-698.522,639.652Z" transform="translate(703.446 -495.176)" fill="#f98aaf"/>
          <path id="Path_21333" data-name="Path 21333" d="M-670.492,606.348l-12.064,6.965c-.969.56-1.756-.034-1.756-1.328h0a4.21,4.21,0,0,1,1.756-3.355l12.064-6.964c.97-.56,1.756.035,1.756,1.328h0A4.2,4.2,0,0,1-670.492,606.348Z" transform="translate(706.815 -501.04)" fill="#f98aaf"/>
          <path id="Path_21334" data-name="Path 21334" d="M-675.388,619.351l-26.3,15.185c-.97.56-1.756-.034-1.756-1.328h0a4.207,4.207,0,0,1,1.756-3.355l26.3-15.185c.969-.56,1.756.035,1.756,1.328h0A4.207,4.207,0,0,1-675.388,619.351Z" transform="translate(703.446 -498.751)" fill="#dad7f0"/>
          <path id="Path_21335" data-name="Path 21335" d="M-591.482,565.966l-72.645,41.942c-.97.56-1.756-.034-1.756-1.327h0a4.2,4.2,0,0,1,1.756-3.355l72.645-41.942c.97-.56,1.756.034,1.756,1.327h0A4.2,4.2,0,0,1-591.482,565.966Z" transform="translate(710.059 -508.149)" fill="#dad7f0"/>
          <path id="Path_21336" data-name="Path 21336" d="M-619.856,600.24-692.5,642.182c-.969.56-1.756-.035-1.756-1.328h0A4.207,4.207,0,0,1-692.5,637.5l72.645-41.941c.971-.56,1.756.034,1.756,1.327h0A4.2,4.2,0,0,1-619.856,600.24Z" transform="translate(705.064 -502.115)" fill="#dad7f0"/>
          <path id="Path_21337" data-name="Path 21337" d="M-650.5,625.024l-51.19,29.555c-.97.56-1.756-.034-1.756-1.328h0a4.206,4.206,0,0,1,1.756-3.355l51.19-29.554c.97-.561,1.756.034,1.756,1.327h0A4.2,4.2,0,0,1-650.5,625.024Z" transform="translate(703.446 -497.752)" fill="#dad7f0"/>
          <path id="Path_21338" data-name="Path 21338" d="M-663.121,640.165l-38.569,22.269c-.97.56-1.756-.034-1.756-1.327h0a4.206,4.206,0,0,1,1.756-3.356l38.569-22.267c.97-.56,1.757.034,1.757,1.327h0A4.2,4.2,0,0,1-663.121,640.165Z" transform="translate(703.446 -495.086)" fill="#dad7f0"/>
          <path id="Path_21339" data-name="Path 21339" d="M-647.519,629.051l-14.193,8.195c-.97.56-1.756-.035-1.756-1.328h0a4.2,4.2,0,0,1,1.756-3.355l14.193-8.195c.97-.56,1.756.034,1.756,1.328h0A4.2,4.2,0,0,1-647.519,629.051Z" transform="translate(710.484 -497.043)" fill="#f98aaf"/>
          <path id="Path_21340" data-name="Path 21340" d="M-601.669,618.943-701.69,676.69c-.97.561-1.756-.034-1.756-1.327h0a4.2,4.2,0,0,1,1.756-3.355l100.021-57.746c.97-.561,1.756.034,1.756,1.326h0A4.2,4.2,0,0,1-601.669,618.943Z" transform="translate(703.446 -498.822)" fill="#dad7f0"/>
          <path id="Path_21341" data-name="Path 21341" d="M-572.29,619.874-672.31,677.62c-.97.56-1.757-.034-1.757-1.328h0a4.206,4.206,0,0,1,1.757-3.356l100.02-57.746c.97-.56,1.757.034,1.757,1.328h0A4.208,4.208,0,0,1-572.29,619.874Z" transform="translate(708.618 -498.659)" fill="#dad7f0"/>
          <path id="Path_21342" data-name="Path 21342" d="M-689.626,671.069l-12.064,6.965c-.97.561-1.756-.034-1.756-1.327h0a4.2,4.2,0,0,1,1.756-3.355l12.064-6.965c.969-.56,1.756.034,1.756,1.328h0A4.206,4.206,0,0,1-689.626,671.069Z" transform="translate(703.446 -489.645)" fill="#dad7f0"/>
          <path id="Path_21343" data-name="Path 21343" d="M-670.492,660.023l-12.064,6.965c-.969.56-1.756-.034-1.756-1.328h0a4.21,4.21,0,0,1,1.756-3.355l12.064-6.965c.97-.56,1.756.035,1.756,1.328h0A4.2,4.2,0,0,1-670.492,660.023Z" transform="translate(706.815 -491.59)" fill="#f98aaf"/>
          <path id="Path_21344" data-name="Path 21344" d="M-675.388,673.026l-26.3,15.185c-.97.56-1.756-.034-1.756-1.328h0a4.207,4.207,0,0,1,1.756-3.355l26.3-15.185c.969-.56,1.756.035,1.756,1.328h0A4.207,4.207,0,0,1-675.388,673.026Z" transform="translate(703.446 -489.301)" fill="#dad7f0"/>
          <path id="Path_21345" data-name="Path 21345" d="M-591.482,619.641l-72.645,41.942c-.97.559-1.756-.034-1.756-1.328h0a4.2,4.2,0,0,1,1.756-3.354l72.645-41.942c.97-.561,1.756.034,1.756,1.327h0A4.2,4.2,0,0,1-591.482,619.641Z" transform="translate(710.059 -498.7)" fill="#dad7f0"/>
          <path id="Path_21346" data-name="Path 21346" d="M-619.856,653.914-692.5,695.857c-.969.558-1.756-.036-1.756-1.328h0a4.207,4.207,0,0,1,1.756-3.356l72.645-41.942c.971-.56,1.756.034,1.756,1.327h0A4.2,4.2,0,0,1-619.856,653.914Z" transform="translate(705.064 -492.666)" fill="#dad7f0"/>
          <path id="Path_21347" data-name="Path 21347" d="M-650.5,678.7l-51.19,29.556c-.97.56-1.756-.034-1.756-1.328h0a4.205,4.205,0,0,1,1.756-3.355l51.19-29.554c.97-.561,1.756.034,1.756,1.327h0A4.2,4.2,0,0,1-650.5,678.7Z" transform="translate(703.446 -488.302)" fill="#dad7f0"/>
        </g>
        <g id="Group_5197" data-name="Group 5197" transform="translate(0 142.506)">
          <path id="Path_21348" data-name="Path 21348" d="M-698.3,648.766l-91.585,52.877V639.105l91.585-52.877Z" transform="translate(789.882 -586.228)" fill="#1e1ba3"/>
          <g id="Group_5196" data-name="Group 5196" transform="translate(9.689 28.07)">
            <path id="Path_21349" data-name="Path 21349" d="M-781.643,664.682v-18.6l3.232-1.865v7.32l6.332-3.656v-7.319l3.232-1.866v18.6l-3.232,1.867V651.03l-6.332,3.655v8.131Z" transform="translate(781.643 -605.061)" fill="#fff"/>
            <path id="Path_21350" data-name="Path 21350" d="M-764.149,654.575v-15.45l-4.748,2.742V638.72l12.718-7.343v3.146l-4.738,2.735v15.451Z" transform="translate(783.887 -606.349)" fill="#fff"/>
            <path id="Path_21351" data-name="Path 21351" d="M-756.347,650.308v-18.6l4.836-2.793,2.9,11.009,2.872-14.342,4.847-2.8v18.6l-3,1.733V628.477l-3.176,16.473-3.113,1.8-3.165-12.812v14.64Z" transform="translate(786.096 -607.862)" fill="#fff"/>
            <path id="Path_21352" data-name="Path 21352" d="M-740.4,640.021V621.577l3.232-1.866v15.311l8.035-4.638v3.133Z" transform="translate(788.904 -608.404)" fill="#fff"/>
            <path id="Path_21353" data-name="Path 21353" d="M-729.4,629.462l3.056-2.133a1.734,1.734,0,0,0,.775,1.462,1.5,1.5,0,0,0,1.485-.153,4.355,4.355,0,0,0,1.626-1.846,6.741,6.741,0,0,0,.666-3.118q0-1.713-.66-2.189a1.523,1.523,0,0,0-1.719.138,6.627,6.627,0,0,0-2.37,2.724l-2.488,1.02,1.572-10.587,8.111-4.683v3.337l-5.786,3.341-.481,3.435a8.316,8.316,0,0,1,2.1-1.807q2.041-1.178,3.46-.273t1.419,3.659a11.26,11.26,0,0,1-1.146,4.76,10.718,10.718,0,0,1-4.334,4.963q-2.216,1.279-3.613.7A3.082,3.082,0,0,1-729.4,629.462Z" transform="translate(790.841 -610.096)" fill="#fff"/>
          </g>
        </g>
      </g>
    </g>
  </g>
</svg>
